<svg xmlns="http://www.w3.org/2000/svg" fill="none" viewBox="0 0 30 31"><path fill="url(#a)" d="m5.75 22.544.36.856a3.89 3.89 0 0 1 .789-.23l-.168-.912c-.336.06-.665.157-.98.286Z"/><path fill="url(#b)" d="m3.288 24.844.844.404a3.813 3.813 0 0 1 1.289-1.48l-.53-.764a4.745 4.745 0 0 0-1.603 1.84Z"/><path fill="url(#c)" d="M29.063 24.583c0-.798-.297-1.568-.836-2.162l-.699.618c.277.305.467.678.55 1.08h-3.234a.473.473 0 0 0-.39.207l-1.736 2.573h-1.155v-1.39c0-.86.347-1.684.962-2.292a3.304 3.304 0 0 1 2.319-.95h.937c.461-.002.912.133 1.296.385l.519-.771a3.285 3.285 0 0 0-1.346-.508V19.95a.46.46 0 0 0-.137-.328.471.471 0 0 0-.332-.136c-.497 0-.973-.195-1.325-.543a1.844 1.844 0 0 1-.55-1.31V15.78h1.407a.472.472 0 0 0 .331-.136.46.46 0 0 0 .137-.327v-3.244a.46.46 0 0 0-.137-.327.472.472 0 0 0-.331-.136h-.827c-.196 0-.391.027-.58.08v-.543a.46.46 0 0 0-.102-.29L22.27 8.962a1.605 1.605 0 0 0-.38-2.087 1.653 1.653 0 0 0-2.144.069 1.607 1.607 0 0 0-.242 2.107 1.658 1.658 0 0 0 2.075.541l1.39 1.717v.585l-2.061-.679a1.277 1.277 0 0 0-.42-.068h-3.866L14.396 8.58A1.394 1.394 0 0 0 15 7.44v-.178l.678-.335a.467.467 0 0 0 .253-.49.46.46 0 0 0-.072-.181l-.77-1.142a.47.47 0 0 0 .38-.454c-.001-.737-.298-1.444-.825-1.965a2.832 2.832 0 0 0-1.988-.815c-.883 0-1.7.25-2.308.914a2.778 2.778 0 0 0-.713 2.142l.1.991c.042.427.25.822.578 1.103v8.749c0 .325.086.645.252.927h-.721c-.16 0-.318.026-.469.08v-6.103c0-.369-.149-.722-.412-.983a1.416 1.416 0 0 0-.994-.407H2.344c-.373 0-.73.147-.994.407s-.412.614-.413.983V13h.938v-.927h6.563v4.634H1.875v-2.78H.937v3.783a.92.92 0 0 0 .218.594.94.94 0 0 0 .552.318l4.387.788v1.087a6.695 6.695 0 0 0-1.16.38h-2.59a.472.472 0 0 0-.332.135.46.46 0 0 0-.137.328v2.199a6.523 6.523 0 0 0-.938 3.36c0 .123.05.241.138.328a.472.472 0 0 0 .331.136h2.149c.28.684.76 1.27 1.38 1.683a3.781 3.781 0 0 0 4.193 0c.619-.413 1.1-.999 1.38-1.683h7.881a2.371 2.371 0 0 0 1.734-.758l.502-.546v1.304c0 .123.05.24.137.327a.471.471 0 0 0 .332.136h.971a3.737 3.737 0 0 0 1.813 1.571 3.792 3.792 0 0 0 2.405.156 3.753 3.753 0 0 0 2.005-1.324 3.678 3.678 0 0 0 .622-3.305.462.462 0 0 0 .152-.341ZM20.155 8.135a.69.69 0 0 1 .434-.642.71.71 0 0 1 .767.151.692.692 0 0 1-.498 1.186.708.708 0 0 1-.497-.203.692.692 0 0 1-.206-.492ZM13.45 24.583c-.459 0-.899-.181-1.224-.502a1.704 1.704 0 0 1-.507-1.21c0-.454.116-.88.423-1.23.273-.31.65-.514 1.063-.573.498-.07.954-.316 1.284-.692.33-.375.51-.856.511-1.353a.457.457 0 0 0-.137-.328 1.373 1.373 0 0 0 .056-1.062h1.273l-2.056 5.286c-.05.128-.075.263-.073.4v1.264h-.613Zm1.55-.927h2.344a.473.473 0 0 1 .448.33.458.458 0 0 1-.188.519.948.948 0 0 1-.374.078H15v-.927Zm3.638-.08a1.396 1.396 0 0 0-.427-.55 1.418 1.418 0 0 0-.641-.278l1.941-4.62a2.673 2.673 0 0 0-.251-2.536 2.72 2.72 0 0 0-.985-.883c-.396-.21-.839-.319-1.289-.319H15v-.735l.137.136a.47.47 0 0 0 .332.136h4.768a1.375 1.375 0 0 0 .177 1.266 1.401 1.401 0 0 0 1.148.587h.002c-.306.4-.47.888-.47 1.39v3.594c-.001.246-.1.481-.275.655l-2.181 2.156Zm2.924-8.723a.473.473 0 0 1-.433-.286.459.459 0 0 1 .102-.505.47.47 0 0 1 .8.328.46.46 0 0 1-.137.327.472.472 0 0 1-.331.136Zm3.282-2.316v2.316h-.938v-2.172c.178-.094.378-.144.58-.144h.358Zm-1.875 1.853a1.376 1.376 0 0 0-.595-1.135 1.415 1.415 0 0 0-1.28-.175v-.827l1.875.618v1.52Zm-6.563-2.317h3.75V13h-4.493l-2.675-2.644-.663.655 1.738 1.718v1.661H11.25V8.83h2.128l2.672 3.082a.47.47 0 0 0 .356.161Zm-5.363-8.656c.429-.468.998-.61 1.613-.61.416 0 .82.138 1.148.39.329.25.563.603.668 1h-1.816a.471.471 0 0 0-.331.136.46.46 0 0 0-.137.328v1.1a.748.748 0 0 1-.211.517.766.766 0 0 1-1.309-.442l-.1-.99a1.812 1.812 0 0 1 .475-1.429Zm.383 4.023c.45 0 .882-.177 1.2-.492.32-.315.498-.742.499-1.187v-.637h.938c0 .091.027.18.078.257l.643.953-.463.229a.467.467 0 0 0-.258.414v.463c0 .123-.05.241-.138.328a.472.472 0 0 1-.331.136H11.25V7.43c.058.006.117.01.176.01Zm-.176 8.34v-.463h5.736c.296 0 .587.072.847.21.261.137.483.337.647.58a1.763 1.763 0 0 1 .165 1.666l-2.083 4.957h-1.348l2.098-5.394a.458.458 0 0 0-.219-.576.473.473 0 0 0-.218-.053h-4.688a.944.944 0 0 1-.662-.272.922.922 0 0 1-.275-.655Zm-1.406 1.853h3.75c.124 0 .243.049.331.136a.46.46 0 0 1-.331.79h-3.75a.472.472 0 0 1-.332-.135.46.46 0 0 1 0-.655.472.472 0 0 1 .332-.136Zm-7.969-6.486v-.463c0-.123.05-.241.137-.328a.472.472 0 0 1 .332-.136h5.625c.124 0 .243.05.331.136a.461.461 0 0 1 .137.328v.463H1.875Zm0 6.486h6.563v.927H6.604l-4.73-.85v-.077Zm1.517 4.17a6.61 6.61 0 0 0-.58.524v-.524h.58Zm3.64 6.95a2.859 2.859 0 0 1-1.405-.376 2.818 2.818 0 0 1-1.03-1.014h1.195a1.885 1.885 0 0 0 2.478 0h1.196c-.248.42-.603.77-1.03 1.014a2.859 2.859 0 0 1-1.405.376Zm12.398-2.771a1.409 1.409 0 0 1-1.04.454H1.893A5.61 5.61 0 0 1 3.3 23.17a5.724 5.724 0 0 1 3.1-1.79c.121-.027.245-.04.369-.04h3.076v-.927H7.03v-.927h6.932a1.142 1.142 0 0 1-.89.665 2.685 2.685 0 0 0-1.64.883c-.453.516-.652 1.162-.652 1.838 0 .627.227 1.234.64 1.71H7.5v.927h9.73a1.92 1.92 0 0 0 1.326-.542l2.926-2.893c.35-.348.548-.819.55-1.31V17.17c0-.287.09-.568.258-.802.168-.235.405-.412.679-.509v1.774c0 .657.236 1.292.665 1.794a2.824 2.824 0 0 0 1.678.947v.966c-.29 0-.588-.018-.878.02a4.252 4.252 0 0 0-2.367 1.014 4.17 4.17 0 0 0-1.33 2.186l-1.307 1.422Zm5.665-.936h.023l.566.56a.52.52 0 0 1 .066.655.524.524 0 0 1-.54.221.527.527 0 0 1-.27-.142l-.43-.426.585-.868Zm.218 3.707a2.855 2.855 0 0 1-2.138-.975.465.465 0 0 0 .184-.158l.406-.603c.226.328.552.575.93.705.378.131.789.139 1.171.022.383-.117.718-.352.956-.67a1.838 1.838 0 0 0 .113-2.028h1.03a2.75 2.75 0 0 1-.357 2.531c-.26.363-.603.66-1.003.864-.4.204-.843.311-1.293.312Z"/><path fill="url(#d)" d="M3.75 13h-.938v2.78h.938V13Z"/><defs><linearGradient id="a" x1="5.751" x2="6.871" y1="22.791" y2="22.796" gradientUnits="userSpaceOnUse"><stop stop-color="#47C2FF"/><stop offset="1" stop-color="#1CB4FF" stop-opacity=".71"/></linearGradient><linearGradient id="b" x1="3.288" x2="5.37" y1="24.051" y2="24.06" gradientUnits="userSpaceOnUse"><stop stop-color="#47C2FF"/><stop offset="1" stop-color="#1CB4FF" stop-opacity=".71"/></linearGradient><linearGradient id="c" x1=".938" x2="28.388" y1="14.853" y2="14.977" gradientUnits="userSpaceOnUse"><stop stop-color="#47C2FF"/><stop offset="1" stop-color="#1CB4FF" stop-opacity=".71"/></linearGradient><linearGradient id="d" x1="2.813" x2="3.728" y1="14.297" y2="14.298" gradientUnits="userSpaceOnUse"><stop stop-color="#47C2FF"/><stop offset="1" stop-color="#1CB4FF" stop-opacity=".71"/></linearGradient></defs></svg>