<svg xmlns="http://www.w3.org/2000/svg" fill="none" viewBox="0 0 28 28"><g clip-path="url(#a)"><path fill="url(#b)" d="M26.688 23.188h-3.063v-8.79a1.904 1.904 0 0 0 1.392-2.546L23.625 8.23V1.313a.437.437 0 0 0-.438-.438H4.813a.437.437 0 0 0-.437.438V8.23l-1.392 3.62A1.902 1.902 0 0 0 4.375 14.4v8.789H1.312a.437.437 0 0 0-.437.437v3.063a.437.437 0 0 0 .438.437h25.375a.437.437 0 0 0 .437-.438v-3.062a.437.437 0 0 0-.438-.438Zm-4.813 0v-9.332a1.9 1.9 0 0 0 .875.516v8.816h-.875Zm-3.5.437v2.625h-1.75v-3.063h.875a.438.438 0 0 0 .438-.437v-1.313A.438.438 0 0 0 17.5 21h-2.625a.438.438 0 0 0-.438.438v1.312a.438.438 0 0 0 .438.438h.875v3.062H14v-2.625a.437.437 0 0 0-.438-.438h-.874v-1.312a.437.437 0 0 0-.438-.438h-.875v-7.04a1.902 1.902 0 0 0 1.081-.651 1.883 1.883 0 0 0 1.467.692h.154a1.885 1.885 0 0 0 1.467-.692c.063.076.132.147.206.213v1.354a2.19 2.19 0 0 0-2.188 2.187.437.437 0 0 0 .438.438h4.375a.437.437 0 0 0 .438-.438 2.19 2.19 0 0 0-2.188-2.188v-.914c.127.026.257.04.387.04h.136a1.901 1.901 0 0 0 1.484-.713 1.896 1.896 0 0 0 1.486.713h.085c.275 0 .547-.059.797-.173v7.172h-.875a.437.437 0 0 0-.438.438v1.313h-.875a.437.437 0 0 0-.437.437Zm-3.063-1.313v-.437h1.75v.438h-1.75ZM6.806 12.265l.966-3.515h1.776l-.652 3.952a1.024 1.024 0 0 1-1.013.86h-.085a1.028 1.028 0 0 1-.992-1.297Zm.195 2c.25.114.522.173.797.172h.085a1.895 1.895 0 0 0 1.486-.711l.033.04c.282.333.67.558 1.099.639v2.22H7v-2.36Zm3.852-.703a1.026 1.026 0 0 1-1.014-1.194l.596-3.618h1.791l-.21 3.841a1.027 1.027 0 0 1-1.027.972h-.136Zm3.971-.32a1.017 1.017 0 0 1-.746.32h-.154a1.026 1.026 0 0 1-1.026-1.08l.204-3.732h1.797l.205 3.729v.002a1.014 1.014 0 0 1-.28.76Zm1.163-.65-.211-3.842h1.791l.596 3.618a1.029 1.029 0 0 1-1.014 1.194h-.136a1.027 1.027 0 0 1-1.026-.97Zm.639 3.595a1.314 1.314 0 0 1 1.238.875h-3.35a1.315 1.315 0 0 1 1.237-.875h.875Zm4.395-3.03a1.02 1.02 0 0 1-.817.405h-.085a1.024 1.024 0 0 1-1.013-.86l-.652-3.952h1.776l.965 3.513v.002a1.023 1.023 0 0 1-.174.893Zm-.457 9.155H21v.875h-.438v-.875ZM24.2 12.166a1.028 1.028 0 1 1-1.95.641L21.136 8.75h1.751l1.314 3.416ZM5.25 1.75h17.5v6.125H5.25V1.75ZM3.911 13.117a1.014 1.014 0 0 1-.112-.951L5.113 8.75h1.75L5.75 12.807a1.03 1.03 0 0 1-1.47.639 1.013 1.013 0 0 1-.368-.33Zm1.339 1.255a1.9 1.9 0 0 0 .875-.516v9.332H5.25v-8.816Zm3.5 11.878h-7v-2.188h7v2.188Zm.438-3.063H7V17.5h3.5v8.75h-.875v-2.625a.437.437 0 0 0-.438-.438Zm2.187-.875h.438v1.313a.437.437 0 0 0 .437.438h.875v2.187h-1.75v-3.938ZM26.25 26.25h-7v-2.188h7v2.188Z"/><path fill="url(#c)" d="M17.063 5.25h-.475a2.63 2.63 0 0 0-2.15-2.15v-.475a.438.438 0 0 0-.876 0V3.1a2.63 2.63 0 0 0-2.15 2.15h-.475a.438.438 0 0 0-.437.438 1.752 1.752 0 0 0 1.75 1.75h3.5a1.752 1.752 0 0 0 1.75-1.75.438.438 0 0 0-.438-.438ZM14 3.937a1.753 1.753 0 0 1 1.695 1.313h-3.39A1.753 1.753 0 0 1 14 3.937Zm1.75 2.626h-3.5a.875.875 0 0 1-.758-.438h5.016a.876.876 0 0 1-.758.438Z"/><path fill="url(#d)" d="M10.743 4.302a.438.438 0 0 0 .194-.364V2.625h-.874v1.063c-.14.07-.286.124-.438.16V2.625H8.75v1.223a1.927 1.927 0 0 1-.438-.16V2.625h-.874v1.313a.437.437 0 0 0 .194.364c.337.224.718.374 1.118.437v2.699h.875V4.739c.4-.063.781-.213 1.118-.437Z"/><path fill="url(#e)" d="M18.812 2.188a1.75 1.75 0 0 0-.437 3.444v1.806h.875V5.631a1.75 1.75 0 0 0-.438-3.444Zm0 2.624a.875.875 0 1 1 0-1.75.875.875 0 0 1 0 1.75Z"/></g><defs><linearGradient id="b" x1=".875" x2="26.496" y1="13.125" y2="13.239" gradientUnits="userSpaceOnUse"><stop stop-color="#FF5050"/><stop offset="1" stop-color="#FF7070" stop-opacity=".84"/></linearGradient><linearGradient id="c" x1="10.5" x2="17.332" y1="4.638" y2="4.678" gradientUnits="userSpaceOnUse"><stop stop-color="#FF5050"/><stop offset="1" stop-color="#FF7070" stop-opacity=".84"/></linearGradient><linearGradient id="d" x1="7.438" x2="10.854" y1="4.871" y2="4.882" gradientUnits="userSpaceOnUse"><stop stop-color="#FF5050"/><stop offset="1" stop-color="#FF7070" stop-opacity=".84"/></linearGradient><linearGradient id="e" x1="17.062" x2="20.479" y1="4.638" y2="4.648" gradientUnits="userSpaceOnUse"><stop stop-color="#FF5050"/><stop offset="1" stop-color="#FF7070" stop-opacity=".84"/></linearGradient><clipPath id="a"><path fill="#fff" d="M0 0h28v28H0z"/></clipPath></defs></svg>