<svg xmlns="http://www.w3.org/2000/svg" fill="none" viewBox="0 0 34 34"><g clip-path="url(#a)"><path fill="url(#b)" d="m31.754 12.881.996-.996c.288-.288.447-.67.447-1.078 0-.407-.159-.79-.447-1.077l-1.14-1.141a1.514 1.514 0 0 0-1.078-.447c-.407 0-.79.159-1.078.447l-.996.996a12.7 12.7 0 0 0-4.412-1.933V6.179h.606a1.49 1.49 0 0 0 1.488-1.488v-2.07a1.49 1.49 0 0 0-1.488-1.488H17.8a1.49 1.49 0 0 0-1.488 1.488v2.07c0 .82.668 1.488 1.488 1.488h.606v1.477a12.703 12.703 0 0 0-4.392 1.929l-.996-.996a1.514 1.514 0 0 0-1.078-.447c-.407 0-.79.159-1.078.447l-1.14 1.14a1.526 1.526 0 0 0 0 2.156l.176.177H5.19a.664.664 0 0 0 0 1.328h5.193a12.713 12.713 0 0 0-1.215 2.552H.664a.664.664 0 0 0 0 1.328H8.79a12.747 12.747 0 0 0-.314 2.553H4.25a.664.664 0 0 0 0 1.328h4.265c.072.879.233 1.733.474 2.552H3.32a.664.664 0 0 0 0 1.329h6.142c1.932 4.598 6.482 7.835 11.774 7.835C28.274 32.867 34 27.142 34 20.104c0-2.678-.83-5.167-2.246-7.222Zm-1.36-3.353a.192.192 0 0 1 .138-.058c.037 0 .091.01.139.058l1.14 1.14a.193.193 0 0 1 .058.14c0 .037-.01.09-.058.138l-.873.873c-.435-.509-.91-.983-1.418-1.418l.873-.873ZM17.64 4.69v-2.07a.16.16 0 0 1 .16-.16h6.852a.16.16 0 0 1 .16.16v2.07a.16.16 0 0 1-.16.16H17.8a.16.16 0 0 1-.16-.16Zm2.095 1.488h2.983v1.247a12.835 12.835 0 0 0-2.983.002V6.179Zm-9.075 4.49 1.141-1.141a.192.192 0 0 1 .139-.058c.037 0 .091.01.139.058l.873.873c-.51.435-.983.91-1.418 1.418l-.874-.873a.196.196 0 0 1 0-.277Zm10.576 20.87C14.93 31.54 9.8 26.41 9.8 20.103S14.93 8.667 21.236 8.667s11.436 5.13 11.436 11.436-5.13 11.436-11.436 11.436Z"/><path fill="url(#c)" d="m25.619 14.781-3.14 3.14a2.498 2.498 0 0 0-1.243-.331 2.517 2.517 0 0 0-2.514 2.513 2.517 2.517 0 0 0 2.514 2.514 2.516 2.516 0 0 0 2.514-2.514c0-.452-.121-.877-.331-1.244l3.139-3.139a.664.664 0 0 0-.94-.939Zm-4.383 6.508a1.187 1.187 0 0 1-1.186-1.186 1.187 1.187 0 0 1 2.371 0c0 .654-.531 1.186-1.185 1.186Z"/><path fill="url(#d)" d="M21.236 11.494a.669.669 0 0 0 .47-.195.67.67 0 0 0 .194-.47.669.669 0 0 0-.664-.664.67.67 0 0 0-.47.195.668.668 0 0 0 .47 1.134Z"/><path fill="url(#e)" d="M21.236 28.713a.669.669 0 0 0-.47.194.668.668 0 0 0 .47 1.134.666.666 0 0 0 .664-.664.669.669 0 0 0-.194-.47.669.669 0 0 0-.47-.194Z"/><path fill="url(#f)" d="M14.678 12.882a.67.67 0 0 0-.47.194.67.67 0 0 0-.194.47.67.67 0 0 0 .195.47.669.669 0 0 0 .939 0 .67.67 0 0 0 .194-.47.67.67 0 0 0-.194-.47.669.669 0 0 0-.47-.194Z"/><path fill="url(#g)" d="M27.794 25.997a.67.67 0 0 0-.47.194.668.668 0 0 0 0 .94.669.669 0 0 0 .94 0 .67.67 0 0 0 .194-.47.669.669 0 0 0-.664-.664Z"/><path fill="url(#h)" d="M14.678 25.997a.67.67 0 0 0-.47.194.669.669 0 0 0-.194.47.67.67 0 0 0 .195.47.67.67 0 0 0 .47.194.669.669 0 0 0 .469-.195.67.67 0 0 0 .194-.47.67.67 0 0 0-.194-.469.67.67 0 0 0-.47-.194Z"/><path fill="url(#i)" d="M11.962 19.44a.667.667 0 0 0-.664.663.666.666 0 0 0 .664.664.666.666 0 0 0 .665-.664.669.669 0 0 0-.665-.664Z"/><path fill="url(#j)" d="M30.98 19.634a.667.667 0 0 0-1.134.47.668.668 0 0 0 .664.663.669.669 0 0 0 .47-.194.67.67 0 0 0 .194-.47.67.67 0 0 0-.195-.47Z"/><path fill="url(#k)" d="M.664 23.704a.669.669 0 0 0-.47.194.67.67 0 0 0-.194.47.67.67 0 0 0 .195.47.67.67 0 0 0 .47.194.669.669 0 0 0 .468-.195.67.67 0 0 0 .195-.47.67.67 0 0 0-.195-.47.668.668 0 0 0-.469-.193Z"/><path fill="url(#l)" d="M30.314 18.087a.664.664 0 0 0 .447-.826 9.964 9.964 0 0 0-6.704-6.689.664.664 0 1 0-.376 1.274 8.576 8.576 0 0 1 5.807 5.794.664.664 0 0 0 .826.447Z"/></g><defs><linearGradient id="b" x1="0" x2="33.185" y1="15.942" y2="16.101" gradientUnits="userSpaceOnUse"><stop stop-color="#FF7D3D"/><stop offset="1" stop-color="#F99462" stop-opacity=".71"/></linearGradient><linearGradient id="c" x1="18.722" x2="26.56" y1="18.334" y2="18.369" gradientUnits="userSpaceOnUse"><stop stop-color="#FF7D3D"/><stop offset="1" stop-color="#F99462" stop-opacity=".71"/></linearGradient><linearGradient id="d" x1="20.572" x2="21.868" y1="10.785" y2="10.791" gradientUnits="userSpaceOnUse"><stop stop-color="#FF7D3D"/><stop offset="1" stop-color="#F99462" stop-opacity=".71"/></linearGradient><linearGradient id="e" x1="20.572" x2="21.868" y1="29.333" y2="29.338" gradientUnits="userSpaceOnUse"><stop stop-color="#FF7D3D"/><stop offset="1" stop-color="#F99462" stop-opacity=".71"/></linearGradient><linearGradient id="f" x1="14.014" x2="15.311" y1="13.501" y2="13.507" gradientUnits="userSpaceOnUse"><stop stop-color="#FF7D3D"/><stop offset="1" stop-color="#F99462" stop-opacity=".71"/></linearGradient><linearGradient id="g" x1="27.13" x2="28.426" y1="26.616" y2="26.622" gradientUnits="userSpaceOnUse"><stop stop-color="#FF7D3D"/><stop offset="1" stop-color="#F99462" stop-opacity=".71"/></linearGradient><linearGradient id="h" x1="14.014" x2="15.311" y1="26.616" y2="26.622" gradientUnits="userSpaceOnUse"><stop stop-color="#FF7D3D"/><stop offset="1" stop-color="#F99462" stop-opacity=".71"/></linearGradient><linearGradient id="i" x1="11.298" x2="12.595" y1="20.059" y2="20.065" gradientUnits="userSpaceOnUse"><stop stop-color="#FF7D3D"/><stop offset="1" stop-color="#F99462" stop-opacity=".71"/></linearGradient><linearGradient id="j" x1="29.846" x2="31.142" y1="20.059" y2="20.065" gradientUnits="userSpaceOnUse"><stop stop-color="#FF7D3D"/><stop offset="1" stop-color="#F99462" stop-opacity=".71"/></linearGradient><linearGradient id="k" x1="0" x2="1.296" y1="24.323" y2="24.329" gradientUnits="userSpaceOnUse"><stop stop-color="#FF7D3D"/><stop offset="1" stop-color="#F99462" stop-opacity=".71"/></linearGradient><linearGradient id="l" x1="23.204" x2="30.607" y1="14.077" y2="14.11" gradientUnits="userSpaceOnUse"><stop stop-color="#FF7D3D"/><stop offset="1" stop-color="#F99462" stop-opacity=".71"/></linearGradient><clipPath id="a"><path fill="#fff" d="M0 0h34v34H0z"/></clipPath></defs></svg>