<svg xmlns="http://www.w3.org/2000/svg" aria-hidden="true" style="position:absolute;width:0;height:0;overflow:hidden"><defs><symbol id="cart" viewBox="0 0 34 32"><path fill="none"  stroke-linecap="round" stroke-linejoin="round" stroke-width="2.4" d="m1.6 1.881 3.328.569 1.541 18.144c.123 1.482 1.376 2.619 2.88 2.614h17.454a2.87 2.87 0 0 0 2.856-2.445l1.518-10.371c.17-1.159-.645-2.235-1.816-2.402-.102-.014-23.899-.022-23.899-.022M19.8 13.813h4.437" style=""/><path   stroke-linecap="round" stroke-linejoin="round" stroke-width="2.4" d="M8.647 28.691c.482 0 .87.386.87.861 0 .476-.389.862-.87.862s-.87-.386-.87-.862c0-.475.389-.861.87-.861zM26.695 28.691c.482 0 .872.386.872.861 0 .476-.39.862-.872.862s-.87-.386-.87-.862c0-.475.389-.861.87-.861z" style=""/></symbol><symbol id="magnifier" viewBox="0 0 32 32"><path fill="none" stroke-linecap="round" stroke-linejoin="round" stroke-width="2.286" d="M28.579 14.995c0 7.477-6.132 13.538-13.697 13.538S1.185 22.472 1.185 14.995 7.317 1.457 14.882 1.457s13.697 6.061 13.697 13.538zM24.409 25.114l5.37 5.294" style=""/></symbol><symbol id="menu" viewBox="0 0 32 32"><path d="M6.4 11.733V9.6h19.2v2.133H6.4zm0 5.334h19.2v-2.133H6.4v2.133zm0 5.333h19.2v-2.133H6.4V22.4z"/></symbol><symbol id="cross" viewBox="0 0 32 32"><path d="M23.733 10.304 22.229 8.8l-5.963 5.963L10.303 8.8l-1.504 1.504 5.963 5.963-5.963 5.963 1.504 1.504 5.963-5.963 5.963 5.963 1.504-1.504-5.963-5.963 5.963-5.963z"/></symbol></defs></svg>