<svg xmlns="http://www.w3.org/2000/svg" aria-hidden="true" style="position:absolute;width:0;height:0;overflow:hidden"><defs><symbol id="cart" viewBox="0 0 34 32"><path fill="none"  stroke-linecap="round" stroke-linejoin="round" stroke-width="2.4" d="m1.6 1.881 3.328.569 1.541 18.144c.123 1.482 1.376 2.619 2.88 2.614h17.454a2.87 2.87 0 0 0 2.856-2.445l1.518-10.371c.17-1.159-.645-2.235-1.816-2.402-.102-.014-23.899-.022-23.899-.022M19.8 13.813h4.437" style=""/><path   stroke-linecap="round" stroke-linejoin="round" stroke-width="2.4" d="M8.647 28.691c.482 0 .87.386.87.861 0 .476-.389.862-.87.862s-.87-.386-.87-.862c0-.475.389-.861.87-.861zM26.695 28.691c.482 0 .872.386.872.861 0 .476-.39.862-.872.862s-.87-.386-.87-.862c0-.475.389-.861.87-.861z" style=""/></symbol><symbol id="magnifier" viewBox="0 0 32 32"><path fill="none" stroke-linecap="round" stroke-linejoin="round" stroke-width="2.286" d="M28.579 14.995c0 7.477-6.132 13.538-13.697 13.538S1.185 22.472 1.185 14.995 7.317 1.457 14.882 1.457s13.697 6.061 13.697 13.538zM24.409 25.114l5.37 5.294" style=""/></symbol><symbol id="menu" viewBox="0 0 32 32"><path d="M6.4 11.733V9.6h19.2v2.133H6.4zm0 5.334h19.2v-2.133H6.4v2.133zm0 5.333h19.2v-2.133H6.4V22.4z"/></symbol><symbol id="cross" viewBox="0 0 32 32"><path d="M23.733 10.304 22.229 8.8l-5.963 5.963L10.303 8.8l-1.504 1.504 5.963 5.963-5.963 5.963 1.504 1.504 5.963-5.963 5.963 5.963 1.504-1.504-5.963-5.963 5.963-5.963z"/></symbol><symbol id="burger" viewBox="0 0 84 32"><path d="M39.418 21.091a.367.367 0 0 1-.247-.087.367.367 0 0 1-.087-.247v-9.498c0-.107.029-.189.087-.247a.336.336 0 0 1 .247-.102h3.985c1.038 0 1.818.247 2.342.742s.785 1.144.785 1.949c0 .543-.126.994-.378 1.353a2.219 2.219 0 0 1-.873.785c.407.204.752.519 1.033.945s.422.916.422 1.469c0 .543-.126 1.038-.378 1.484-.242.446-.606.8-1.091 1.062s-1.067.393-1.745.393h-4.102zm3.767-5.876c.611 0 1.076-.141 1.396-.422.33-.281.495-.674.495-1.178 0-.495-.16-.873-.48-1.135s-.79-.393-1.411-.393h-2.676v3.127h2.676zm.146 4.698c.611 0 1.086-.165 1.425-.495.349-.33.524-.752.524-1.265 0-.533-.175-.96-.524-1.28-.339-.33-.815-.495-1.425-.495h-2.822v3.535h2.822zm8.101 1.323c-.921 0-1.634-.296-2.138-.887-.504-.601-.756-1.396-.756-2.385v-4.102c0-.097.029-.175.087-.233a.336.336 0 0 1 .247-.102h.727c.097 0 .175.034.233.102a.291.291 0 0 1 .102.233v4.029c0 1.445.63 2.167 1.891 2.167.611 0 1.096-.189 1.455-.567.359-.388.538-.921.538-1.6v-4.029c0-.097.029-.175.087-.233a.336.336 0 0 1 .247-.102h.727c.097 0 .175.034.233.102a.315.315 0 0 1 .087.233v6.895a.367.367 0 0 1-.087.247.315.315 0 0 1-.233.087h-.684a.367.367 0 0 1-.247-.087.367.367 0 0 1-.087-.247v-.64c-.272.369-.601.65-.989.844-.388.184-.868.276-1.44.276zm6.263-.145a.367.367 0 0 1-.247-.087.367.367 0 0 1-.087-.247v-6.88c0-.097.029-.179.087-.247a.336.336 0 0 1 .247-.102h.669c.097 0 .179.034.247.102s.102.15.102.247v.64c.398-.659 1.076-.989 2.036-.989h.567c.097 0 .175.034.233.102a.291.291 0 0 1 .102.233v.596a.291.291 0 0 1-.102.233.315.315 0 0 1-.233.087h-.873c-.524 0-.936.155-1.236.465-.301.301-.451.713-.451 1.236v4.276a.336.336 0 0 1-.102.247.367.367 0 0 1-.247.087h-.713zm8.133 3.2c-.795 0-1.435-.136-1.92-.407-.485-.262-.829-.562-1.033-.902s-.315-.645-.335-.916a.29.29 0 0 1 .087-.247.37.37 0 0 1 .247-.102h.698c.087 0 .16.019.218.058a.536.536 0 0 1 .145.247c.116.31.305.577.567.8.272.233.689.349 1.251.349.718 0 1.246-.155 1.585-.465.339-.301.509-.839.509-1.615v-.989a2.79 2.79 0 0 1-.96.771c-.388.184-.848.276-1.382.276-1.028 0-1.799-.325-2.313-.975-.504-.659-.771-1.493-.8-2.502l-.015-.407.015-.393c.029-.999.301-1.828.815-2.487.514-.669 1.28-1.004 2.298-1.004s1.813.373 2.385 1.12v-.625c0-.097.029-.179.087-.247a.336.336 0 0 1 .247-.102h.669c.097 0 .179.034.247.102s.102.15.102.247v7.055c0 2.24-1.139 3.36-3.418 3.36zm-.029-4.306c.659 0 1.159-.218 1.498-.655s.524-.955.553-1.556a5.48 5.48 0 0 0 .015-.509c0-.242-.005-.407-.015-.495-.029-.601-.213-1.12-.553-1.556-.33-.436-.829-.655-1.498-.655-.688 0-1.188.213-1.498.64s-.48.989-.509 1.687l-.015.378.015.393c.029.689.199 1.251.509 1.687.31.427.81.64 1.498.64zm8.635 1.251c-.999 0-1.799-.305-2.4-.916-.591-.621-.916-1.464-.975-2.531l-.015-.495.015-.48c.068-1.047.398-1.881.989-2.502.601-.621 1.391-.931 2.371-.931 1.076 0 1.911.344 2.502 1.033.591.679.887 1.6.887 2.764v.247a.336.336 0 0 1-.102.247.315.315 0 0 1-.233.087H72.44v.131c.029.63.218 1.169.567 1.615.359.436.829.655 1.411.655.446 0 .809-.087 1.091-.262.291-.184.504-.373.64-.567.087-.116.151-.184.189-.204a.511.511 0 0 1 .247-.044h.713c.087 0 .16.024.218.073s.087.116.087.204c0 .213-.136.47-.407.771-.262.301-.635.562-1.12.785-.475.213-1.023.32-1.644.32zm1.993-4.48v-.044c0-.669-.184-1.212-.553-1.629-.359-.427-.844-.64-1.455-.64s-1.096.213-1.455.64c-.349.417-.524.96-.524 1.629v.044h3.985zm3.455 4.335a.367.367 0 0 1-.247-.087.367.367 0 0 1-.087-.247v-6.88c0-.097.029-.179.087-.247a.337.337 0 0 1 .247-.102h.669c.097 0 .18.034.247.102s.102.15.102.247v.64c.398-.659 1.076-.989 2.036-.989h.567c.097 0 .175.034.233.102a.291.291 0 0 1 .102.233v.596a.288.288 0 0 1-.102.233.314.314 0 0 1-.233.087h-.873c-.524 0-.935.155-1.236.465-.3.301-.451.713-.451 1.236v4.276a.332.332 0 0 1-.102.247.367.367 0 0 1-.247.087h-.713zM32 14.79a2.816 2.816 0 0 0-1.892-2.657c-.169-3.812-1.592-6.736-4.236-8.702C23.458 1.637 20.137.728 16.001.728s-7.458.91-9.871 2.704c-2.644 1.966-4.067 4.891-4.237 8.702a2.816 2.816 0 0 0-1.892 2.657c0 .72.272 1.377.718 1.875a2.802 2.802 0 0 0-.718 1.875c0 1.236.802 2.288 1.912 2.664.402 4.284 4.044 7.649 8.463 7.649h11.25c4.419 0 8.06-3.365 8.463-7.649a2.816 2.816 0 0 0 1.912-2.664c0-.72-.272-1.377-.718-1.875a2.802 2.802 0 0 0 .718-1.875zM16 2.602c5.377 0 11.746 1.657 12.221 9.375H3.78c.474-7.718 6.844-9.375 12.221-9.375zM2.813 13.852h26.375c.517 0 .938.421.938.937s-.421.938-.938.938H2.813a.938.938 0 0 1 0-1.875zm18.812 13.125h-11.25c-3.332 0-6.096-2.449-6.557-5.625h.87c.627 0 .825.213 1.219.638.485.522 1.149 1.237 2.593 1.237 1.454 0 2.101-.722 2.573-1.25.373-.416.56-.625 1.177-.625s.804.209 1.177.625c.472.527 1.119 1.25 2.573 1.25s2.101-.722 2.573-1.25c.373-.416.56-.625 1.177-.625s.804.209 1.177.625c.472.527 1.119 1.25 2.573 1.25s2.101-.722 2.573-1.25c.373-.416.56-.625 1.177-.625h.932c-.461 3.176-3.225 5.625-6.557 5.625zm7.563-7.5h-1.937c-1.454 0-2.101.722-2.573 1.25-.373.416-.56.625-1.177.625s-.804-.209-1.177-.625c-.472-.527-1.119-1.25-2.573-1.25s-2.101.722-2.573 1.25c-.373.416-.56.625-1.177.625s-.804-.209-1.177-.625c-.472-.527-1.119-1.25-2.573-1.25s-2.101.722-2.573 1.25c-.373.416-.56.625-1.177.625-.627 0-.825-.213-1.219-.638-.485-.522-1.149-1.237-2.593-1.237H2.814c-.517 0-.938-.421-.938-.937s.421-.938.938-.938h26.375a.938.938 0 0 1 0 1.875z"/><path d="M10.375 10.102a.938.938 0 1 0 0-1.876.938.938 0 0 0 0 1.876zM21.625 10.102a.937.937 0 1 0 0-1.874.937.937 0 0 0 0 1.874zM17.875 8.227a.938.938 0 1 0 0-1.876.938.938 0 0 0 0 1.876zM14.125 6.352a.937.937 0 1 0 0-1.874.937.937 0 0 0 0 1.874z"/></symbol><symbol id="asian-food" viewBox="0 0 113 32"><path d="M39.127 21.091c-.078 0-.145-.029-.204-.087s-.087-.126-.087-.204c0-.078.005-.131.015-.16l3.607-9.411c.078-.213.233-.32.465-.32h.989c.233 0 .388.107.465.32l3.593 9.411.029.16c0 .078-.029.145-.087.204s-.126.087-.204.087h-.742a.371.371 0 0 1-.247-.073.448.448 0 0 1-.116-.175l-.8-2.065h-4.771l-.8 2.065a.415.415 0 0 1-.131.175.35.35 0 0 1-.233.073h-.742zm6.255-3.564-1.964-5.164-1.964 5.164h3.927zm6.602 3.709c-.679 0-1.251-.107-1.716-.32-.456-.223-.8-.475-1.033-.756-.223-.281-.335-.514-.335-.698 0-.097.034-.17.102-.218a.388.388 0 0 1 .233-.087h.655c.097 0 .184.049.262.145.233.271.485.485.756.64s.635.233 1.091.233c.504 0 .912-.097 1.222-.291.32-.204.48-.48.48-.829a.795.795 0 0 0-.204-.567c-.126-.155-.349-.286-.669-.393-.31-.116-.776-.242-1.396-.378-.844-.184-1.445-.451-1.804-.8-.349-.349-.524-.8-.524-1.353 0-.368.107-.718.32-1.047.223-.339.543-.611.96-.815.427-.213.936-.32 1.527-.32.621 0 1.149.102 1.585.305s.761.446.975.727c.223.271.335.499.335.684 0 .087-.034.16-.102.218a.296.296 0 0 1-.218.087h-.611a.362.362 0 0 1-.291-.145 3.504 3.504 0 0 0-.407-.422 1.297 1.297 0 0 0-.48-.276c-.204-.078-.465-.116-.785-.116-.465 0-.824.102-1.076.305a.925.925 0 0 0-.378.771.86.86 0 0 0 .16.524c.107.136.31.262.611.378.31.116.756.238 1.338.364.921.194 1.571.475 1.949.844.388.359.582.819.582 1.382 0 .417-.121.795-.364 1.135s-.601.606-1.076.8c-.465.194-1.023.291-1.673.291zm5.015-9.12a.367.367 0 0 1-.247-.087.367.367 0 0 1-.087-.247v-.785c0-.097.029-.179.087-.247a.336.336 0 0 1 .247-.102h.916c.097 0 .179.034.247.102s.102.15.102.247v.785a.336.336 0 0 1-.102.247.367.367 0 0 1-.247.087h-.916zm.116 8.975a.367.367 0 0 1-.247-.087.367.367 0 0 1-.087-.247v-6.895c0-.097.029-.175.087-.233a.336.336 0 0 1 .247-.102h.698c.097 0 .175.034.233.102a.291.291 0 0 1 .102.233v6.895a.336.336 0 0 1-.102.247.315.315 0 0 1-.233.087h-.698zm5.298.145c-.475 0-.916-.097-1.324-.291s-.732-.456-.975-.785a1.936 1.936 0 0 1-.349-1.12c0-.64.262-1.164.785-1.571.533-.417 1.251-.689 2.153-.815l2.167-.305v-.422c0-.989-.567-1.484-1.702-1.484-.427 0-.776.092-1.047.276a1.792 1.792 0 0 0-.611.625.4.4 0 0 1-.116.189c-.039.039-.097.058-.175.058h-.625a.35.35 0 0 1-.233-.087.348.348 0 0 1-.087-.233c.01-.233.116-.495.32-.785.213-.301.538-.558.975-.771.436-.223.975-.335 1.615-.335 1.086 0 1.867.257 2.342.771.475.504.713 1.135.713 1.891v4.713a.336.336 0 0 1-.102.247.315.315 0 0 1-.233.087h-.669a.367.367 0 0 1-.247-.087.367.367 0 0 1-.087-.247v-.625c-.213.31-.524.572-.931.785s-.926.32-1.556.32zm.305-1.091c.63 0 1.144-.204 1.542-.611.407-.417.611-1.013.611-1.789v-.407l-1.687.247c-.688.097-1.207.262-1.556.495-.349.223-.524.509-.524.858 0 .388.16.689.48.902.32.204.698.305 1.135.305zm5.946.946a.367.367 0 0 1-.247-.087.367.367 0 0 1-.087-.247v-6.895c0-.097.029-.175.087-.233a.336.336 0 0 1 .247-.102h.684c.097 0 .175.034.233.102a.291.291 0 0 1 .102.233v.64c.281-.359.611-.635.989-.829.388-.194.868-.291 1.44-.291.931 0 1.653.301 2.168.902.524.591.785 1.382.785 2.371v4.102a.336.336 0 0 1-.102.247.315.315 0 0 1-.233.087h-.727a.365.365 0 0 1-.247-.087.367.367 0 0 1-.087-.247v-4.029c0-.689-.17-1.222-.509-1.6-.33-.378-.81-.567-1.44-.567-.611 0-1.096.194-1.455.582-.359.378-.538.907-.538 1.585v4.029a.336.336 0 0 1-.102.247.315.315 0 0 1-.233.087h-.727zm12.575 0a.365.365 0 0 1-.247-.087.367.367 0 0 1-.087-.247v-9.498c0-.107.029-.189.087-.247a.337.337 0 0 1 .247-.102h5.935c.107 0 .189.034.247.102a.308.308 0 0 1 .102.247v.582a.336.336 0 0 1-.102.247c-.058.058-.14.087-.247.087h-4.858v3.389h4.567c.107 0 .189.034.247.102a.308.308 0 0 1 .102.247v.582a.336.336 0 0 1-.102.247.369.369 0 0 1-.247.087h-4.567v3.927a.336.336 0 0 1-.102.247.369.369 0 0 1-.247.087h-.727zm10.913.145c-1.067 0-1.896-.301-2.487-.902-.582-.601-.892-1.401-.931-2.4l-.015-.625.015-.625c.039-.989.353-1.784.945-2.385.591-.611 1.415-.916 2.473-.916s1.881.305 2.473.916c.591.601.906 1.396.945 2.385.009.107.015.315.015.625s-.005.519-.015.625c-.039.999-.354 1.799-.945 2.4-.582.601-1.407.902-2.473.902zm0-1.12c.611 0 1.091-.194 1.44-.582.359-.388.553-.945.582-1.673.009-.097.015-.281.015-.553s-.005-.456-.015-.553c-.029-.727-.223-1.285-.582-1.673-.349-.388-.829-.582-1.44-.582s-1.096.194-1.455.582c-.359.388-.548.945-.567 1.673l-.015.553.015.553c.019.727.208 1.285.567 1.673s.844.582 1.455.582zm8.352 1.12c-1.067 0-1.896-.301-2.487-.902-.582-.601-.892-1.401-.931-2.4l-.015-.625.015-.625c.039-.989.354-1.784.945-2.385.591-.611 1.416-.916 2.473-.916s1.881.305 2.473.916c.591.601.907 1.396.945 2.385.009.107.015.315.015.625s-.005.519-.015.625c-.039.999-.354 1.799-.945 2.4-.582.601-1.406.902-2.473.902zm0-1.12c.611 0 1.091-.194 1.44-.582.359-.388.553-.945.582-1.673.009-.097.015-.281.015-.553s-.005-.456-.015-.553c-.029-.727-.223-1.285-.582-1.673-.349-.388-.829-.582-1.44-.582s-1.096.194-1.455.582c-.359.388-.548.945-.567 1.673l-.015.553.015.553c.02.727.209 1.285.567 1.673s.844.582 1.455.582zm8.017 1.12c-1.008 0-1.769-.33-2.283-.989s-.785-1.493-.815-2.502l-.015-.436.015-.436c.029-.999.3-1.828.815-2.487.513-.669 1.275-1.004 2.283-1.004.999 0 1.785.354 2.357 1.062v-3.345c0-.097.029-.175.087-.233a.336.336 0 0 1 .247-.102h.698c.097 0 .175.034.233.102a.291.291 0 0 1 .102.233v9.658a.336.336 0 0 1-.102.247.315.315 0 0 1-.233.087h-.655a.365.365 0 0 1-.247-.087.367.367 0 0 1-.087-.247v-.611c-.563.727-1.363 1.091-2.401 1.091zm.307-1.178c.669 0 1.168-.218 1.498-.655.339-.446.524-.975.553-1.585.009-.107.015-.291.015-.553 0-.271-.005-.461-.015-.567-.02-.572-.204-1.072-.553-1.498s-.849-.64-1.498-.64c-.689 0-1.193.213-1.513.64-.311.427-.48.989-.509 1.687l-.015.422c0 1.833.679 2.749 2.036 2.749zM5.373 13.013h1.534c.396 0 .718.322.718.718v1.057a.469.469 0 0 0 .938 0v-1.057c0-.913-.743-1.656-1.655-1.656H5.374a.707.707 0 0 1 0-1.412h1.793a.469.469 0 0 0 0-.938H5.374c-.906 0-1.643.737-1.643 1.643s.737 1.643 1.643 1.643zM11.005 9.867h1.545c.401 0 .727.326.727.727v1.065a.469.469 0 0 0 .938 0v-1.065c0-.918-.747-1.665-1.665-1.665h-1.545a.716.716 0 0 1 0-1.43h3.427c.911 0 1.652-.741 1.652-1.652s-.741-1.652-1.652-1.652h-2.741a.469.469 0 0 0 0 .938h2.741a.716.716 0 0 1 0 1.43h-3.427c-.911 0-1.652.741-1.652 1.652s.741 1.652 1.652 1.652zM18.656 19.5a.469.469 0 1 0 0-.938.469.469 0 0 0 0 .938zM20.969 20.562a.469.469 0 1 0 0-.938.469.469 0 0 0 0 .938zM22.344 22.188a.469.469 0 1 0 0-.938.469.469 0 0 0 0 .938zM20.406 18.375a.469.469 0 1 0 0-.938.469.469 0 0 0 0 .938zM18.844 22.5a.469.469 0 1 0 0-.938.469.469 0 0 0 0 .938z"/><path d="M31.208 16.59h-1.33l.657-1.358a1.823 1.823 0 0 0 1.464-1.785c0-.904-.663-1.657-1.529-1.797-.957-1.723-2.825-3.017-5.092-3.534V8.08a.469.469 0 0 0-.92-.128 9.904 9.904 0 0 0-.87-.073.468.468 0 0 0-.846 0 9.904 9.904 0 0 0-.87.073.469.469 0 0 0-.92.128v.036c-2.266.517-4.135 1.811-5.092 3.534a1.823 1.823 0 0 0-1.522 1.954c-2.164.201-4.108 1.105-5.567 2.462H5.826a.66.66 0 0 0-.502.232H3.947a1.539 1.539 0 0 0-1.423-.972A1.531 1.531 0 0 0 1.01 17.07a1.534 1.534 0 0 0-.775 2.257 1.531 1.531 0 0 0 1.293 2.348 1.54 1.54 0 0 0 1.423-.972h1.24a.662.662 0 0 0 .426.453l1.47.499a7.698 7.698 0 0 0-.001.889c-.23.055-.444.151-.635.279a1.963 1.963 0 0 0-1.098-.334 1.98 1.98 0 0 0-1.977 1.977l.002.05H1.83c-.309 0-.584.174-.716.454s-.092.602.105.841l1.406 1.709a.791.791 0 0 0 .611.289h19.825a.469.469 0 0 0 0-.938H3.304l-1.166-1.417h28.759l-1.166 1.417h-4.483a.469.469 0 0 0 0 .938H29.8c.238 0 .46-.105.611-.289l1.406-1.709c.197-.239.237-.561.105-.841s-.406-.454-.716-.454h-.464a3.934 3.934 0 0 0 .466-2.67.47.47 0 0 0-.378-.378 3.935 3.935 0 0 0-3.642 1.259 1.968 1.968 0 0 0-.899-.236v-.892h.5a1.44 1.44 0 0 0 1.438-1.438v-.629h2.982a.793.793 0 0 0 .792-.792v-1.356a.793.793 0 0 0-.792-.792zM4.575 24.514H3.316l-.002-.05a1.04 1.04 0 0 1 1.493-.933 1.96 1.96 0 0 0-.235.934l.002.05zm23.437-1.298a2.994 2.994 0 0 1 2.316-.869 3 3 0 0 1-.731 2.167h-.773l.64-.64a.469.469 0 0 0-.663-.663l-.664.664a2.003 2.003 0 0 0-.253-.522c.041-.047.084-.093.128-.137zM18.548 10.14a7.793 7.793 0 0 1 2.406-1.056v.482a.469.469 0 0 0 .938 0v-.668c.266-.038.535-.063.806-.077v.745a.469.469 0 0 0 .938 0v-.745c.271.014.541.039.806.077v.668a.469.469 0 0 0 .938 0v-.482a7.783 7.783 0 0 1 2.406 1.056 5.974 5.974 0 0 1 1.665 1.641c-.158.07-.307.161-.44.273-.323-.271-.736-.427-1.169-.427s-.845.156-1.169.427c-.323-.271-.737-.427-1.169-.427s-.845.156-1.169.427c-.323-.271-.737-.427-1.169-.427s-.845.156-1.169.427c-.323-.271-.736-.427-1.169-.427s-.845.156-1.169.427c-.323-.271-.736-.427-1.169-.427s-.845.156-1.169.427a1.85 1.85 0 0 0-.44-.273 5.96 5.96 0 0 1 1.665-1.641zm-2.394 2.424c.313 0 .605.169.763.442a.468.468 0 0 0 .811 0c.158-.272.45-.442.763-.442s.605.169.763.442a.468.468 0 0 0 .811 0c.158-.272.45-.442.763-.442s.605.169.763.442a.468.468 0 0 0 .811 0c.158-.272.45-.442.763-.442s.605.169.763.442a.468.468 0 0 0 .81 0c.158-.272.45-.442.763-.442s.605.169.763.442a.468.468 0 0 0 .811 0c.158-.272.45-.442.763-.442s.605.169.763.442a.468.468 0 0 0 .81 0 .887.887 0 0 1 .763-.442.884.884 0 0 1 0 1.766.884.884 0 0 1-.763-.442.468.468 0 0 0-.81 0c-.158.272-.451.442-.763.442s-.605-.169-.763-.442a.468.468 0 0 0-.811 0c-.158.272-.45.442-.763.442s-.605-.169-.763-.442a.468.468 0 0 0-.81 0c-.158.272-.45.442-.763.442s-.605-.169-.763-.442a.468.468 0 0 0-.811 0c-.158.272-.451.442-.763.442s-.605-.169-.763-.442a.468.468 0 0 0-.811 0 .886.886 0 0 1-.392.358 9.702 9.702 0 0 0-3.583-.685.884.884 0 0 1 .875-.997zM6.103 17.003h1.798c-.185.23-.358.468-.518.715h-1.28v-.715zm-1.934 2.76H2.586a.468.468 0 0 0-.467.43.593.593 0 1 1-.967-.507.467.467 0 0 0 0-.722.593.593 0 1 1 .967-.507c.02.243.223.43.467.43h1.583v.876zm.161-1.813H2.953a1.546 1.546 0 0 0-.989-.908.593.593 0 0 1 .561-.78c.305 0 .564.238.59.542.02.243.223.43.467.43h1.583v.484h-.334a.658.658 0 0 0-.502.232zm3.258 6.564H5.513l-.002-.05a1.04 1.04 0 0 1 2.078 0l-.002.05zm14.457 0h-1.632l-.002-.05a1.04 1.04 0 0 1 1.774-.734 1.971 1.971 0 0 0-.142.735l.002.05zm-.594-2.027a1.98 1.98 0 0 0-1.977 1.977l.002.05H8.526l.002-.05c0-.926-.64-1.705-1.5-1.918a6.971 6.971 0 0 1-.014-.435l.002-.143 4.794 1.628a2.995 2.995 0 0 0 2.729-.404 2.986 2.986 0 0 0 1.261-2.454c0-.352-.06-.698-.18-1.027a.469.469 0 0 0-.881.319c.082.227.124.465.124.708 0 .68-.317 1.296-.869 1.692s-1.238.497-1.882.279l-7.003-2.378v-1.674h7.672c.235 0 .467.039.688.117a.468.468 0 1 0 .31-.884 3.009 3.009 0 0 0-.999-.17H8.53c1.495-1.947 3.955-3.22 6.731-3.22 4.548 0 8.248 3.415 8.248 7.613 0 .15-.005.299-.015.448a1.972 1.972 0 0 0-.758.405 1.97 1.97 0 0 0-1.285-.476zm3.606 2.027h-2.075l-.002-.05a1.04 1.04 0 0 1 2.078 0l-.002.05zm.295-1.809a1.947 1.947 0 0 0-.216.128 1.97 1.97 0 0 0-.701-.301 7.947 7.947 0 0 0-.007-.935h.924v1.109zm1.937 1.759-.002.05h-1.293l.002-.05c0-.332-.083-.645-.228-.92a1.04 1.04 0 0 1 1.52.92zm0-4.305a.5.5 0 0 1-.5.5h-2.478a7.929 7.929 0 0 0-.294-1.129h3.272v.629zm3.773-1.567h-7.431a8.443 8.443 0 0 0-.62-1.065H25a.469.469 0 0 0 0-.938h-2.732a9.072 9.072 0 0 0-1.51-1.325l.071.002c.432 0 .845-.156 1.169-.427.323.271.737.427 1.169.427s.845-.156 1.169-.427c.323.271.737.427 1.169.427s.845-.156 1.169-.427c.323.271.737.427 1.169.427s.845-.156 1.169-.427c.156.131.334.235.524.307l-.698 1.443h-1.649a.469.469 0 0 0 0 .938h3.875v1.065z"/></symbol><symbol id="sandwich" viewBox="0 0 104 32"><path d="M30.4 4.8h-1.067V3.733a1.6 1.6 0 0 0-1.6-1.6h-1.27L25.691.59a1.059 1.059 0 0 0-.954-.59H24c-.589 0-1.067.478-1.067 1.067v1.067h-5.867a1.6 1.6 0 0 0-1.6 1.6v1.067h-1.067a1.6 1.6 0 0 0-1.6 1.6v1.067c0 .589.478 1.067 1.067 1.067h.057l.624 5.51-2.57-.604a8.398 8.398 0 0 0-.419-.591l-.907-3.902a.534.534 0 0 0-.518-.413H7.068c-1.446-1.274-3.155-1.85-4.444-1.471l-.783-.853a1.054 1.054 0 0 0-1.167-.267 1.055 1.055 0 0 0-.675.986v23.483a1.591 1.591 0 0 0 1.589 1.589h26.144a.534.534 0 0 0 .53-.473l2.613-22.994h.058c.589 0 1.067-.478 1.067-1.067V6.401a1.6 1.6 0 0 0-1.6-1.6zM24 1.067h.737l.533 1.067H24V1.067zm-7.467 2.666c0-.295.239-.533.533-.533h10.667c.295 0 .533.239.533.533V4.8H16.533V3.733zm-1.493 11.52.034.006.431.102.289 3.027a4.92 4.92 0 0 0-2.866-.904 4.56 4.56 0 0 0-.299-2.798l2.411.566zm1.042 4.718.007.006c.193.179.377.368.549.566a6.315 6.315 0 0 1 1.365 2.463c.09.318.137.647.138.978l-4.981-5.433a4.86 4.86 0 0 1 2.922 1.419zm-5.62-6.778v-.001c1.151 1.323 1.687 2.912 1.433 3.979l-5.428-5.917c1.095-.245 2.76.524 3.995 1.939zM9.707 9.6l.427 1.816a6.836 6.836 0 0 0-1.391-.839 8.485 8.485 0 0 0-.675-.977h1.639zm-2.681.397h.002c.044.051.081.107.123.16a2.907 2.907 0 0 0-1.463.246L3.495 8.012c1.072.015 2.471.77 3.53 1.985zM22.354 30.62a.52.52 0 0 1-.477.313H1.589a.523.523 0 0 1-.523-.523l-.01-23.477L21.503 29.23a.571.571 0 0 0 .039.047l.715.78a.52.52 0 0 1 .096.562zm-3.301-5.642a3.34 3.34 0 0 0 .147-.983c.28.236.541.494.781.772.298.34.562.709.79 1.1.311.524.532 1.096.651 1.694l-2.369-2.582zm8.204 5.955h-3.885c.2-.553.073-1.171-.328-1.6l-.537-.587a4.872 4.872 0 0 0-.416-2.613h5.712l-.546 4.8zm.667-5.866h-6.4a7.794 7.794 0 0 0-2.561-2.554 7.379 7.379 0 0 0-1.52-2.674c-.16-.181-.32-.35-.488-.513l-.421-4.444a.533.533 0 0 0-.408-.468l-.473-.112-.112-.969h13.717l-1.334 11.733zm1.455-12.8H15.42l-.422-3.733h14.805l-.424 3.733zm1.554-4.8H13.866V6.4c0-.295.239-.533.533-.533h16c.295 0 .533.239.533.533v1.067zM42.24 21.236c-.543 0-1.008-.068-1.396-.204s-.703-.301-.945-.495a2.557 2.557 0 0 1-.553-.582c-.116-.194-.179-.349-.189-.465-.01-.107.024-.189.102-.247s.155-.087.233-.087h.64c.058 0 .102.01.131.029.039.01.087.049.145.116.126.136.267.271.422.407s.344.247.567.335c.233.087.519.131.858.131.495 0 .902-.092 1.222-.276a.93.93 0 0 0 .48-.844c0-.242-.068-.436-.204-.582-.126-.145-.359-.276-.698-.393-.33-.116-.785-.238-1.367-.364-.582-.136-1.042-.301-1.382-.495-.339-.204-.582-.441-.727-.713a2.03 2.03 0 0 1-.218-.945c0-.359.107-.703.32-1.033.213-.339.524-.616.931-.829.417-.213.936-.32 1.556-.32.504 0 .936.063 1.295.189s.655.286.887.48c.233.184.407.368.524.553s.179.339.189.465a.29.29 0 0 1-.087.247.348.348 0 0 1-.233.087h-.611a.337.337 0 0 1-.175-.044.974.974 0 0 1-.116-.102 3.08 3.08 0 0 0-.349-.378 1.364 1.364 0 0 0-.509-.305c-.204-.087-.475-.131-.815-.131-.485 0-.849.102-1.091.305s-.364.461-.364.771c0 .184.053.349.16.495s.31.276.611.393c.301.116.747.242 1.338.378.64.126 1.144.296 1.513.509s.63.461.785.742c.155.281.233.606.233.975 0 .407-.121.781-.364 1.12-.233.339-.582.611-1.047.815-.456.194-1.023.291-1.702.291zm6.906 0c-.485 0-.926-.097-1.324-.291s-.718-.456-.96-.785a1.847 1.847 0 0 1-.364-1.12c0-.669.272-1.202.815-1.6s1.251-.659 2.124-.785l2.167-.305v-.422c0-.465-.136-.829-.407-1.091-.262-.262-.693-.393-1.295-.393-.436 0-.79.087-1.062.262a1.424 1.424 0 0 0-.553.669c-.058.145-.16.218-.305.218h-.655c-.107 0-.189-.029-.247-.087a.393.393 0 0 1-.073-.233c0-.145.053-.325.16-.538.116-.213.291-.422.524-.625s.529-.373.887-.509c.368-.145.815-.218 1.338-.218.582 0 1.072.078 1.469.233.398.145.708.344.931.596.233.252.398.538.495.858.107.32.16.645.16.975v4.713a.336.336 0 0 1-.102.247.315.315 0 0 1-.233.087h-.669c-.107 0-.189-.029-.247-.087a.367.367 0 0 1-.087-.247v-.625a2.851 2.851 0 0 1-.509.524c-.213.165-.48.305-.8.422-.32.107-.713.16-1.178.16zm.305-1.091c.398 0 .761-.082 1.091-.247a1.81 1.81 0 0 0 .771-.8c.194-.359.291-.81.291-1.353v-.407l-1.687.247c-.688.097-1.207.262-1.556.495-.349.223-.524.509-.524.858 0 .271.078.499.233.684.165.175.368.305.611.393.252.087.509.131.771.131zm5.946.946a.367.367 0 0 1-.247-.087.367.367 0 0 1-.087-.247v-6.895c0-.097.029-.175.087-.233a.336.336 0 0 1 .247-.102h.684c.097 0 .175.034.233.102a.291.291 0 0 1 .102.233v.64a2.91 2.91 0 0 1 .945-.8c.388-.213.882-.32 1.484-.32.63 0 1.164.141 1.6.422.446.271.781.655 1.004 1.149.223.485.335 1.052.335 1.702v4.102a.367.367 0 0 1-.087.247.315.315 0 0 1-.233.087h-.727a.367.367 0 0 1-.247-.087.367.367 0 0 1-.087-.247v-4.029c0-.679-.165-1.207-.495-1.585-.33-.388-.815-.582-1.455-.582-.601 0-1.086.194-1.455.582-.359.378-.538.907-.538 1.585v4.029a.336.336 0 0 1-.102.247.315.315 0 0 1-.233.087h-.727zm11.25.145c-.533 0-.994-.092-1.382-.276a2.79 2.79 0 0 1-.96-.771 3.675 3.675 0 0 1-.553-1.12 5.862 5.862 0 0 1-.204-1.324 6.81 6.81 0 0 1 0-.872c.019-.456.087-.892.204-1.309.126-.417.31-.79.553-1.12.252-.33.572-.587.96-.771.388-.194.848-.291 1.382-.291.572 0 1.047.102 1.425.305s.688.456.931.756v-3.345c0-.097.029-.175.087-.233a.336.336 0 0 1 .247-.102h.698c.097 0 .175.034.233.102a.291.291 0 0 1 .102.233v9.658a.336.336 0 0 1-.102.247.315.315 0 0 1-.233.087h-.655c-.107 0-.189-.029-.247-.087a.367.367 0 0 1-.087-.247v-.611c-.242.31-.558.572-.945.785-.388.204-.873.305-1.455.305zm.305-1.178c.485 0 .873-.111 1.164-.335s.509-.504.655-.844c.145-.349.223-.703.233-1.062.01-.155.015-.339.015-.553 0-.223-.005-.412-.015-.567a2.519 2.519 0 0 0-.247-1.004 1.945 1.945 0 0 0-.669-.815c-.291-.213-.669-.32-1.135-.32-.495 0-.887.111-1.178.335a1.753 1.753 0 0 0-.625.858 3.851 3.851 0 0 0-.218 1.135c-.01.281-.01.562 0 .844.019.407.092.79.218 1.149.126.349.335.635.625.858.291.213.684.32 1.178.32zm7.589 1.033a.436.436 0 0 1-.291-.087.856.856 0 0 1-.175-.276l-2.066-6.749a.399.399 0 0 1-.029-.145c0-.087.029-.16.087-.218a.331.331 0 0 1 .218-.087h.64c.107 0 .189.029.247.087s.097.111.116.16l1.615 5.484 1.731-5.425a.56.56 0 0 1 .116-.204c.068-.068.165-.102.291-.102h.495c.126 0 .223.034.291.102s.107.136.116.204l1.731 5.425 1.615-5.484c.009-.049.044-.102.102-.16s.14-.087.247-.087h.64a.296.296 0 0 1 .305.305.372.372 0 0 1-.029.145l-2.065 6.749a.518.518 0 0 1-.16.276c-.068.058-.169.087-.305.087h-.567a.565.565 0 0 1-.32-.087.522.522 0 0 1-.16-.276l-1.687-5.207-1.687 5.207a.611.611 0 0 1-.175.276.524.524 0 0 1-.32.087h-.567zm9.989 0a.365.365 0 0 1-.247-.087.367.367 0 0 1-.087-.247v-6.895c0-.097.029-.175.087-.233a.337.337 0 0 1 .247-.102h.698c.097 0 .175.034.233.102a.315.315 0 0 1 .087.233v6.895a.367.367 0 0 1-.087.247.315.315 0 0 1-.233.087h-.698zm-.116-8.975a.365.365 0 0 1-.247-.087.367.367 0 0 1-.087-.247v-.785c0-.097.029-.175.087-.233a.337.337 0 0 1 .247-.102h.916c.097 0 .175.034.233.102a.291.291 0 0 1 .102.233v.785a.336.336 0 0 1-.102.247.315.315 0 0 1-.233.087h-.916zm6.387 9.12c-.689 0-1.285-.131-1.789-.393a2.844 2.844 0 0 1-1.149-1.149c-.271-.504-.417-1.105-.436-1.804-.009-.145-.015-.339-.015-.582s.005-.436.015-.582c.02-.698.165-1.295.436-1.789a2.738 2.738 0 0 1 1.149-1.149c.504-.271 1.1-.407 1.789-.407.562 0 1.042.078 1.44.233.407.155.742.354 1.004.596s.456.504.582.785c.136.281.209.548.218.8.009.097-.02.175-.087.233s-.151.087-.247.087h-.698c-.097 0-.169-.019-.218-.058a.79.79 0 0 1-.145-.233c-.175-.475-.412-.81-.713-1.004s-.674-.291-1.12-.291c-.582 0-1.057.179-1.425.538-.359.359-.553.936-.582 1.731a19.19 19.19 0 0 0 0 1.018c.029.805.223 1.387.582 1.745.369.349.844.524 1.425.524.446 0 .82-.097 1.12-.291s.538-.529.713-1.004a.611.611 0 0 1 .145-.218c.049-.049.121-.073.218-.073h.698c.097 0 .18.029.247.087s.097.136.087.233c-.009.204-.053.412-.131.625s-.204.431-.378.655a2.805 2.805 0 0 1-.625.582 3.462 3.462 0 0 1-.916.407 4.466 4.466 0 0 1-1.193.145zm5.32-.145a.365.365 0 0 1-.247-.087.367.367 0 0 1-.087-.247v-9.658c0-.097.029-.175.087-.233a.337.337 0 0 1 .247-.102h.727c.107 0 .189.034.247.102a.315.315 0 0 1 .087.233v3.389c.262-.33.582-.596.96-.8s.858-.305 1.44-.305c.631 0 1.164.141 1.6.422.446.271.78.655 1.004 1.149.233.485.349 1.052.349 1.702v4.102a.367.367 0 0 1-.087.247c-.058.058-.14.087-.247.087h-.727a.365.365 0 0 1-.247-.087.367.367 0 0 1-.087-.247v-4.029c0-.679-.165-1.207-.495-1.585-.329-.388-.815-.582-1.455-.582-.601 0-1.086.194-1.455.582-.369.378-.553.907-.553 1.585v4.029a.367.367 0 0 1-.087.247c-.058.058-.14.087-.247.087h-.727z"/><path d="M22.619 23.467c.03 0 .06-.004.09-.005.008 0 .016.005.024.005a.518.518 0 0 0 .079-.011 2.882 2.882 0 0 0 2.108-1.14 3.711 3.711 0 0 0 .52-3.254 44.278 44.278 0 0 1-.207-.809c-.416-1.668-.813-3.241-2.498-3.311-.017 0-.033-.003-.05-.003s-.042-.004-.066-.004c-1.885 0-3.419 1.914-3.419 4.267s1.534 4.267 3.419 4.267zm.412-7.387c.551.216.794.939 1.166 2.43.067.267.136.546.213.829a2.656 2.656 0 0 1-.338 2.327c-.17.223-.387.405-.637.533a7.768 7.768 0 0 0-.533-2.677c-.053-.166-.107-.327-.154-.48-.31-1.01.053-2.318.282-2.963zm-1.146.08a5.856 5.856 0 0 0-.154 3.195c.049.16.104.326.16.498.267.814.587 1.798.456 2.522-1.169-.182-2.081-1.536-2.081-3.175 0-1.416.68-2.618 1.619-3.04zM2.823 28.046l-.377.377a.532.532 0 0 0 .236.9.534.534 0 0 0 .519-.145l.377-.377a.535.535 0 0 0-.754-.755zM7.922 24.456a.535.535 0 0 0-.755-.755l-.377.377a.531.531 0 0 0 .239.892.533.533 0 0 0 .515-.138l.378-.377zM3.2 23.09l-.377.377a.532.532 0 0 0 .236.9.534.534 0 0 0 .519-.145l.377-.377a.535.535 0 0 0-.754-.755zM3.2 19.356l-.377.377a.532.532 0 0 0 .236.9.534.534 0 0 0 .519-.145l.377-.377a.533.533 0 0 0-.754-.754zM8 28.046l-.377.377a.532.532 0 0 0 .236.9.535.535 0 0 0 .519-.145l.377-.377a.535.535 0 0 0-.754-.755zM11.89 28.046l-.377.377a.532.532 0 0 0 .236.9.535.535 0 0 0 .519-.145l.377-.377a.535.535 0 0 0-.754-.755z"/></symbol><symbol id="pizza" viewBox="0 0 61 32"><path d="M37.181 19.302c-.075 0-.132-.02-.173-.061a.254.254 0 0 1-.061-.173v-6.634c0-.075.02-.132.061-.173a.217.217 0 0 1 .173-.071h2.58c.501 0 .935.081 1.3.244.372.163.66.406.864.731.203.318.305.718.305 1.199s-.102.88-.305 1.199a1.888 1.888 0 0 1-.864.721c-.366.163-.799.244-1.3.244h-1.798v2.54a.238.238 0 0 1-.071.173c-.041.041-.098.061-.173.061h-.538zm.772-3.627h1.757c.501 0 .877-.112 1.128-.335s.376-.549.376-.975c0-.42-.122-.745-.366-.975s-.623-.345-1.138-.345h-1.757v2.631zm5.643 3.627a.256.256 0 0 1-.173-.061.254.254 0 0 1-.061-.173v-4.815a.22.22 0 0 1 .061-.163.236.236 0 0 1 .173-.071h.488c.068 0 .122.024.163.071a.22.22 0 0 1 .061.163v4.815c0 .068-.02.125-.061.173a.22.22 0 0 1-.163.061h-.488zm-.081-6.268a.256.256 0 0 1-.173-.061.254.254 0 0 1-.061-.173v-.549a.22.22 0 0 1 .061-.163.236.236 0 0 1 .173-.071h.64c.068 0 .122.024.163.071a.206.206 0 0 1 .071.163v.549a.238.238 0 0 1-.071.173.22.22 0 0 1-.163.061h-.64zm2.256 6.268a.256.256 0 0 1-.173-.061.254.254 0 0 1-.061-.173v-.356c0-.061.014-.119.041-.173.034-.054.068-.105.102-.152l2.804-3.566h-2.621a.256.256 0 0 1-.173-.061c-.041-.041-.061-.098-.061-.173v-.335a.22.22 0 0 1 .061-.163.236.236 0 0 1 .173-.071h3.617c.068 0 .122.024.163.071a.206.206 0 0 1 .071.163v.376a.274.274 0 0 1-.051.163 6.73 6.73 0 0 1-.091.152l-2.773 3.556h2.885a.22.22 0 0 1 .163.061.217.217 0 0 1 .071.173v.335a.238.238 0 0 1-.071.173.22.22 0 0 1-.163.061h-3.911zm5.169 0a.256.256 0 0 1-.173-.061.254.254 0 0 1-.061-.173v-.356c0-.061.014-.119.041-.173.034-.054.068-.105.102-.152l2.804-3.566h-2.621a.256.256 0 0 1-.173-.061c-.041-.041-.061-.098-.061-.173v-.335a.22.22 0 0 1 .061-.163.236.236 0 0 1 .173-.071h3.617c.068 0 .122.024.163.071a.206.206 0 0 1 .071.163v.376a.274.274 0 0 1-.051.163 6.73 6.73 0 0 1-.091.152l-2.773 3.556h2.885a.22.22 0 0 1 .163.061.217.217 0 0 1 .071.173v.335a.238.238 0 0 1-.071.173.22.22 0 0 1-.163.061h-3.911zm6.743.101c-.339 0-.647-.068-.924-.203s-.501-.318-.67-.549a1.282 1.282 0 0 1-.254-.782c0-.467.189-.84.569-1.117s.874-.461 1.483-.549l1.514-.213v-.295c0-.325-.095-.579-.284-.762-.183-.183-.485-.274-.904-.274-.305 0-.552.061-.742.183a.99.99 0 0 0-.386.467c-.041.102-.112.152-.213.152h-.457c-.075 0-.132-.02-.173-.061a.272.272 0 0 1-.051-.163c0-.102.037-.227.112-.376.081-.149.203-.295.366-.437s.369-.261.62-.356c.257-.102.569-.152.935-.152.406 0 .748.054 1.026.163.277.102.494.24.65.416.163.176.277.376.345.599.074.223.112.45.112.681v3.291a.238.238 0 0 1-.071.173.22.22 0 0 1-.163.061h-.467c-.075 0-.132-.02-.173-.061a.254.254 0 0 1-.061-.173v-.437a1.988 1.988 0 0 1-.356.366 2.08 2.08 0 0 1-.559.295 2.615 2.615 0 0 1-.823.112zm.214-.762c.277 0 .531-.058.762-.173.23-.122.409-.308.538-.559.135-.251.203-.566.203-.945v-.284l-1.178.173c-.481.068-.843.183-1.087.345-.244.156-.366.356-.366.599 0 .19.054.349.163.477.115.122.257.213.427.274.176.061.356.091.538.091zM31.426 15.806a.437.437 0 0 1-.249.392l-17.391 8.249a2.386 2.386 0 0 1-4.527.358c-1.188-2.868-1.79-5.897-1.79-9.001s.602-6.133 1.79-9.001a2.392 2.392 0 0 1 3.119-1.292 2.38 2.38 0 0 1 1.302 1.32l17.501 8.581c.15.074.245.227.244.395zm-15.663 6.736 1.843-.874a1.113 1.113 0 0 0-1.257-1.067c-.295.039-.556.19-.737.426a1.105 1.105 0 0 0-.22.823c.036.271.167.515.372.693zM12.044 6.316a1.516 1.516 0 0 0-1.979.82 22.5 22.5 0 0 0 0 17.334c.155.374.446.665.82.82s.785.155 1.159 0 .665-.446.82-.82.155-.785 0-1.159c-.991-2.392-1.493-4.918-1.493-7.508s.502-5.115 1.493-7.508a1.516 1.516 0 0 0-.82-1.979zm12.103 6.618c-.027.029-.054.058-.078.09-.181.236-.259.528-.22.822s.19.557.426.737a1.115 1.115 0 0 0 1.56-.205c.115-.15.188-.326.216-.511l-1.904-.933zm2.709 1.328a1.988 1.988 0 0 1-3.873-.302 1.97 1.97 0 0 1 .359-1.421l-2.407-1.18-.164 1.247a.438.438 0 0 1-.866-.114l.203-1.539-6.261-3.07c-.017.25-.074.502-.175.746a18.624 18.624 0 0 0 0 14.347c.067.161.114.325.144.49l1.121-.532a1.98 1.98 0 0 1-.41-.972 1.973 1.973 0 0 1 .567-1.666 1.965 1.965 0 0 1 1.142-.561 1.98 1.98 0 0 1 2.197 1.54l5.205-2.469-.206-.497a.436.436 0 1 1 .807-.334l.189.456 5.557-2.636-3.129-1.534z"/><path d="M10.856 19.993a.435.435 0 0 1-.519-.334.436.436 0 0 1 .519.334zM11.154 21.229c.227.828.508 1.651.837 2.444a.437.437 0 0 1-.806.334 21.375 21.375 0 0 1-.872-2.548.434.434 0 0 1 .306-.536.435.435 0 0 1 .536.306zM21.512 17.997a1.991 1.991 0 0 1-2.784.367 1.988 1.988 0 0 1-.195-2.981 1.991 1.991 0 0 1 2.612-.17 1.988 1.988 0 0 1 .367 2.784zm-.898-2.091a1.115 1.115 0 0 0-1.56.205 1.115 1.115 0 0 0 .205 1.56 1.114 1.114 0 0 0 1.56-.206 1.115 1.115 0 0 0-.205-1.56zM17.592 14.238a1.991 1.991 0 0 1-2.784.367c-.421-.323-.691-.79-.76-1.316a1.973 1.973 0 0 1 .565-1.665 1.991 1.991 0 0 1 2.612-.17 1.988 1.988 0 0 1 .367 2.784zm-.898-2.091a1.115 1.115 0 0 0-1.56.205c-.181.236-.259.528-.22.823s.19.557.426.737a1.115 1.115 0 0 0 1.56-.205 1.115 1.115 0 0 0-.205-1.56zM16.835 17.553l-.824 1.074a.437.437 0 0 1-.693-.531l.824-1.074a.436.436 0 1 1 .693.532zM14.076 15.756l.553.72a.436.436 0 1 1-.693.531l-.553-.72a.437.437 0 0 1 .692-.531z"/></symbol><symbol id="set-menu" viewBox="0 0 102 32"><path d="M42.356 22.691c-.805 0-1.503-.126-2.095-.378-.582-.252-1.028-.582-1.338-.989a2.376 2.376 0 0 1-.495-1.338c0-.078.029-.145.087-.204a.32.32 0 0 1 .233-.102h.742c.184 0 .31.097.378.291.087.407.335.756.742 1.047.417.291.999.436 1.745.436.805 0 1.411-.141 1.818-.422.407-.291.611-.693.611-1.207 0-.33-.102-.596-.305-.8-.194-.204-.485-.383-.873-.538s-.97-.349-1.745-.582c-.756-.213-1.358-.441-1.804-.684s-.781-.543-1.004-.902c-.223-.359-.335-.81-.335-1.353 0-.524.141-.994.422-1.411.291-.417.703-.742 1.236-.975.533-.242 1.169-.364 1.905-.364.756 0 1.406.136 1.949.407.543.262.955.596 1.236 1.004s.431.815.451 1.222a.281.281 0 0 1-.087.204c-.048.058-.121.087-.218.087h-.771c-.204 0-.33-.092-.378-.276-.058-.407-.286-.742-.684-1.004-.398-.271-.897-.407-1.498-.407-.659 0-1.178.126-1.556.378s-.567.625-.567 1.12c0 .33.087.601.262.815.184.213.461.402.829.567.368.155.907.335 1.615.538.824.223 1.474.456 1.949.698.475.233.829.529 1.062.887.233.349.349.795.349 1.338 0 .902-.349 1.61-1.047 2.124s-1.639.771-2.822.771zm8.612 0c-.999 0-1.799-.305-2.4-.916-.592-.621-.916-1.464-.975-2.531l-.015-.495.015-.48c.068-1.047.398-1.881.989-2.502.601-.621 1.392-.931 2.371-.931 1.076 0 1.91.344 2.502 1.033.592.679.887 1.6.887 2.764v.247a.336.336 0 0 1-.102.247.315.315 0 0 1-.233.087h-5.033v.131c.029.63.218 1.169.567 1.615.359.436.829.655 1.411.655.446 0 .81-.087 1.091-.262.291-.184.504-.373.64-.567.087-.116.15-.184.189-.204a.509.509 0 0 1 .247-.044h.713c.087 0 .16.024.218.073s.087.116.087.204c0 .213-.136.47-.407.771-.262.301-.635.562-1.12.785-.475.213-1.023.32-1.644.32zm1.993-4.48v-.044c0-.669-.184-1.212-.553-1.629-.359-.427-.844-.64-1.455-.64s-1.096.213-1.455.64c-.349.417-.524.96-.524 1.629v.044h3.985zm6.031 4.334c-1.532 0-2.298-.853-2.298-2.56v-3.84h-1.135a.367.367 0 0 1-.247-.087.367.367 0 0 1-.087-.247v-.495c0-.097.029-.175.087-.233a.336.336 0 0 1 .247-.102h1.135v-2.429c0-.097.029-.175.087-.233a.336.336 0 0 1 .247-.102h.684c.097 0 .175.034.233.102a.291.291 0 0 1 .102.233v2.429h1.804c.097 0 .175.034.233.102a.291.291 0 0 1 .102.233v.495a.336.336 0 0 1-.102.247.315.315 0 0 1-.233.087h-1.804v3.738c0 .485.082.853.247 1.105.165.242.436.364.815.364h.887c.097 0 .175.034.233.102a.291.291 0 0 1 .102.233v.524a.336.336 0 0 1-.102.247.315.315 0 0 1-.233.087h-1.004zm6.818 0a.367.367 0 0 1-.247-.087.367.367 0 0 1-.087-.247v-9.498c0-.107.029-.189.087-.247a.336.336 0 0 1 .247-.102h.727c.155 0 .281.078.378.233l3.069 5.876 3.098-5.876a.367.367 0 0 1 .116-.16.412.412 0 0 1 .247-.073h.713c.107 0 .189.034.247.102a.308.308 0 0 1 .102.247v9.498a.336.336 0 0 1-.102.247.369.369 0 0 1-.247.087h-.713a.365.365 0 0 1-.247-.087.367.367 0 0 1-.087-.247v-7.156l-2.429 4.742c-.097.204-.252.305-.465.305h-.451c-.213 0-.368-.102-.465-.305l-2.444-4.742v7.156a.336.336 0 0 1-.102.247.315.315 0 0 1-.233.087h-.713zm14.05.146c-.999 0-1.799-.305-2.4-.916-.591-.621-.916-1.464-.975-2.531l-.015-.495.015-.48c.068-1.047.398-1.881.989-2.502.601-.621 1.391-.931 2.371-.931 1.076 0 1.911.344 2.502 1.033.591.679.887 1.6.887 2.764v.247a.336.336 0 0 1-.102.247.315.315 0 0 1-.233.087h-5.033v.131c.029.63.218 1.169.567 1.615.359.436.829.655 1.411.655.446 0 .809-.087 1.091-.262.291-.184.504-.373.64-.567.087-.116.151-.184.189-.204a.511.511 0 0 1 .247-.044h.713c.087 0 .16.024.218.073s.087.116.087.204c0 .213-.136.47-.407.771-.262.301-.635.562-1.12.785-.475.213-1.023.32-1.644.32zm1.993-4.48v-.044c0-.669-.184-1.212-.553-1.629-.359-.427-.844-.64-1.455-.64s-1.096.213-1.455.64c-.349.417-.524.96-.524 1.629v.044h3.985zm3.455 4.334a.367.367 0 0 1-.247-.087.367.367 0 0 1-.087-.247v-6.895c0-.097.029-.175.087-.233a.337.337 0 0 1 .247-.102h.684c.097 0 .175.034.233.102a.291.291 0 0 1 .102.233v.64c.281-.359.611-.635.989-.829.388-.194.868-.291 1.44-.291.931 0 1.654.301 2.167.902.524.592.785 1.382.785 2.371v4.102a.332.332 0 0 1-.102.247.314.314 0 0 1-.233.087h-.727a.367.367 0 0 1-.247-.087.367.367 0 0 1-.087-.247v-4.029c0-.689-.169-1.222-.509-1.6-.329-.378-.809-.567-1.44-.567-.611 0-1.095.194-1.455.582-.359.378-.538.907-.538 1.585v4.029a.332.332 0 0 1-.102.247.314.314 0 0 1-.233.087h-.727zm11.309.146c-.921 0-1.633-.296-2.138-.887-.504-.601-.756-1.396-.756-2.385v-4.102c0-.097.029-.175.087-.233a.337.337 0 0 1 .247-.102h.727c.097 0 .175.034.233.102a.291.291 0 0 1 .102.233v4.029c0 1.445.631 2.167 1.891 2.167.611 0 1.096-.189 1.455-.567.359-.388.538-.921.538-1.6v-4.029c0-.097.029-.175.087-.233a.337.337 0 0 1 .247-.102h.727c.097 0 .175.034.233.102a.315.315 0 0 1 .087.233v6.895a.367.367 0 0 1-.087.247.314.314 0 0 1-.233.087h-.684a.367.367 0 0 1-.247-.087.367.367 0 0 1-.087-.247v-.64c-.271.369-.601.65-.989.844-.388.184-.868.276-1.44.276zM22.66 10.66l-.342-1.114c-.435-1.265-1.825-1.942-3.105-1.513a2.433 2.433 0 0 0-1.53 1.513l-.342 1.114a6.189 6.189 0 0 0-.177 2.899 2.73 2.73 0 0 0 1.421 1.9l-.384 8.473c-.051.473.104.945.427 1.298a1.878 1.878 0 0 0 2.75 0c.316-.343.471-.801.427-1.263l-.386-8.509a2.73 2.73 0 0 0 1.419-1.899 6.175 6.175 0 0 0-.177-2.899zm-.874 2.716a1.676 1.676 0 0 1-1.107 1.259.527.527 0 0 0-.345.517l.405 8.899a.606.606 0 0 1-.16.478.832.832 0 0 1-1.16 0 .63.63 0 0 1-.157-.512l.402-8.864a.527.527 0 0 0-.345-.517 1.68 1.68 0 0 1-1.107-1.259 5.137 5.137 0 0 1 .147-2.407l.342-1.114a1.388 1.388 0 0 1 2.594 0l.342 1.114a5.15 5.15 0 0 1 .147 2.407zM14.4 7.907a.53.53 0 0 0-.533.527v4.526l-1.444 1.427a.52.52 0 0 0-.156.399l.467 9.225a.713.713 0 0 1-.202.537.758.758 0 0 1-1.062.005l-.005-.005a.713.713 0 0 1-.202-.537l.47-9.225a.52.52 0 0 0-.156-.399l-1.444-1.427V8.434c0-.291-.239-.527-.533-.527s-.533.236-.533.527v4.744c0 .14.056.274.156.373l1.433 1.416-.455 8.993c-.048.982.718 1.817 1.712 1.865A1.793 1.793 0 0 0 13.8 23.96l-.455-8.992 1.433-1.416a.524.524 0 0 0 .156-.373V8.435a.53.53 0 0 0-.533-.527z"/><path d="M11.2 7.907a.53.53 0 0 0-.533.527v4.217c0 .291.239.527.533.527s.533-.236.533-.527V8.434a.53.53 0 0 0-.533-.527zM12.8 7.907a.53.53 0 0 0-.533.527v4.217c0 .291.239.527.533.527s.533-.236.533-.527V8.434a.53.53 0 0 0-.533-.527z"/><path d="M16 0C7.163 0 0 7.08 0 15.814s7.163 15.814 16 15.814 16-7.08 16-15.814C31.99 7.084 24.832.01 16 0zm0 30.574c-8.248 0-14.933-6.608-14.933-14.76S7.753 1.054 16 1.054c8.248 0 14.933 6.608 14.933 14.76-.009 8.148-6.69 14.751-14.933 14.76z"/><path d="M17.731 25.71a.532.532 0 0 0-.583-.474l-.021.002h.002a9.93 9.93 0 0 1-2.26 0 .528.528 0 1 0-.124 1.048c.833.096 1.674.096 2.507 0a.528.528 0 0 0 .479-.576zM24.16 9.022a.537.537 0 0 0-.751-.065l-.002.002a.523.523 0 0 0-.064.743 9.407 9.407 0 0 1-.566 12.834c-.209.206-.209.539-.001.746s.546.207.754.001a10.454 10.454 0 0 0 .63-14.261zM12.426 6.968l-.001-.001-.002.001h.003z"/><path d="M18.516 5.566a10.88 10.88 0 0 0-6.278.381.526.526 0 0 0 .187 1.021.543.543 0 0 0 .187-.034 9.797 9.797 0 0 1 5.653-.343c.286.068.575-.106.644-.388s-.107-.568-.393-.636zM9.199 22.509A9.369 9.369 0 0 1 6.4 15.814a9.348 9.348 0 0 1 1.835-5.581c.177-.233.13-.563-.106-.738s-.57-.128-.747.105l-.009.012a10.452 10.452 0 0 0 1.07 13.644c.209.206.547.206.755 0s.209-.54 0-.747z"/></symbol></defs></svg>